{
  "source": "C:\\Users\\Peter\\Desktop\\stuff\\MIUN\\quantitative_research\\video_compression\\videos\\UVG\\Bosphorus_1920x1080_120fps_420_8bit_YUV.y4m",
  "output": "C:\\Users\\Peter\\Desktop\\stuff\\MIUN\\quantitative_research\\video_compression\\compressed_videos\\UVG\\vp9\\3\\Bosphorus_1920x1080_120fps_420_8bit_YUV_vp9.webm",
  "codec": "vp9",
  "ok": "[yuv4mpegpipe @ 000002984d0f5280] Stream #0: not enough frames to estimate rate; consider increasing probesize\nInput #0, yuv4mpegpipe, from 'C:\\Users\\Peter\\Desktop\\stuff\\MIUN\\quantitative_research\\video_compression\\videos\\UVG\\Bosphorus_1920x1080_120fps_420_8bit_YUV.y4m':\n  Duration: 00:00:05.00, start: 0.000000, bitrate: 2985989 kb/s\n  Stream #0:0: Video: rawvideo (I420 / 0x30323449), yuv420p(progressive), 1920x1080, 120 fps, 120 tbr, 120 tbn\n[out#0/webm @ 000002984d0f8e00] Codec AVOption b:a (set bitrate (in bits/s)) has not been used for any stream. The most likely reason is either wrong type (e.g. a video option with no video streams) or that it is a private option of some decoder which was not actually used for any stream.\nStream mapping:\n  Stream #0:0 -> #0:0 (rawvideo (native) -> vp9 (libvpx-vp9))\nPress [q] to stop, [?] for help\n[libvpx-vp9 @ 000002984d0fbf80] v1.15.2-100-g40561f514\nOutput #0, webm, to 'C:\\Users\\Peter\\Desktop\\stuff\\MIUN\\quantitative_research\\video_compression\\compressed_videos\\UVG\\vp9\\3\\Bosphorus_1920x1080_120fps_420_8bit_YUV_vp9.webm':\n  Metadata:\n    encoder         : Lavf62.3.100\n  Stream #0:0: Video: vp9, yuv420p(tv, progressive), 1920x1080, q=2-31, 3000 kb/s, 120 fps, 1k tbn\n    Metadata:\n      encoder         : Lavc62.11.100 libvpx-vp9\n    Side data:\n      cpb: bitrate max/min/avg: 0/0/0 buffer size: 3000000 vbv_delay: N/A\nframe=    0 fps=0.0 q=0.0 size=       0KiB time=N/A bitrate=N/A speed=N/A elapsed=0:00:00.52    \nframe=    4 fps=2.9 q=49.0 size=       0KiB time=00:00:00.03 bitrate= 115.4kbits/s speed=0.0246x elapsed=0:00:01.35    \nframe=    7 fps=3.6 q=46.0 size=       0KiB time=00:00:00.05 bitrate=  66.0kbits/s speed=0.03x elapsed=0:00:01.94    \nframe=   10 fps=4.0 q=45.0 size=       0KiB time=00:00:00.08 bitrate=  46.2kbits/s speed=0.033x elapsed=0:00:02.52    \nframe=   14 fps=4.4 q=45.0 size=       0KiB time=00:00:00.10 bitrate=  35.5kbits/s speed=0.0342x elapsed=0:00:03.17    \nframe=   16 fps=4.2 q=37.0 size=       0KiB time=00:00:00.12 bitrate=  30.8kbits/s speed=0.0328x elapsed=0:00:03.81    \nframe=   19 fps=4.2 q=45.0 size=       0KiB time=00:00:00.15 bitrate=  24.3kbits/s speed=0.0349x elapsed=0:00:04.53    \nframe=   23 fps=4.3 q=47.0 size=       0KiB time=00:00:00.18 bitrate=  21.0kbits/s speed=0.0344x elapsed=0:00:05.33    \nframe=   26 fps=4.3 q=40.0 size=       0KiB time=00:00:00.20 bitrate=  18.5kbits/s speed=0.0344x elapsed=0:00:06.06    \nframe=   29 fps=4.3 q=47.0 size=       0KiB time=00:00:00.24 bitrate=  15.9kbits/s speed=0.0361x elapsed=0:00:06.69    \nframe=   30 fps=4.1 q=40.0 size=       0KiB time=00:00:00.25 bitrate=  15.4kbits/s speed=0.0339x elapsed=0:00:07.38    \nframe=   33 fps=4.1 q=40.0 size=       0KiB time=00:00:00.27 bitrate=  14.0kbits/s speed=0.0345x elapsed=0:00:07.97    \nframe=   36 fps=4.2 q=42.0 size=       0KiB time=00:00:00.30 bitrate=  12.8kbits/s speed=0.0348x elapsed=0:00:08.63    \nframe=   39 fps=4.2 q=43.0 size=       0KiB time=00:00:00.32 bitrate=  11.8kbits/s speed=0.0352x elapsed=0:00:09.23    \nframe=   42 fps=4.3 q=45.0 size=       0KiB time=00:00:00.35 bitrate=  11.0kbits/s speed=0.0356x elapsed=0:00:09.83    \nframe=   45 fps=4.3 q=42.0 size=       0KiB time=00:00:00.36 bitrate=  10.5kbits/s speed=0.0353x elapsed=0:00:10.38    \nframe=   47 fps=4.2 q=44.0 size=       0KiB time=00:00:00.39 bitrate=   9.8kbits/s speed=0.0352x elapsed=0:00:11.13    \nframe=   50 fps=4.3 q=38.0 size=       0KiB time=00:00:00.40 bitrate=   9.4kbits/s speed=0.0349x elapsed=0:00:11.68    \nframe=   53 fps=4.3 q=45.0 size=       0KiB time=00:00:00.44 bitrate=   8.7kbits/s speed=0.0359x elapsed=0:00:12.30    \nframe=   56 fps=4.3 q=39.0 size=       0KiB time=00:00:00.45 bitrate=   8.4kbits/s speed=0.0352x elapsed=0:00:13.00    \nframe=   59 fps=4.3 q=45.0 size=       0KiB time=00:00:00.49 bitrate=   7.8kbits/s speed=0.036x elapsed=0:00:13.65    \nframe=   61 fps=4.3 q=31.0 size=       0KiB time=00:00:00.50 bitrate=   7.6kbits/s speed=0.0356x elapsed=0:00:14.29    \nframe=   66 fps=4.4 q=43.0 size=       0KiB time=00:00:00.54 bitrate=   7.1kbits/s speed=0.0363x elapsed=0:00:14.91    \nframe=   69 fps=4.4 q=46.0 size=       0KiB time=00:00:00.57 bitrate=   6.7kbits/s speed=0.0367x elapsed=0:00:15.66    \nframe=   73 fps=4.5 q=48.0 size=       0KiB time=00:00:00.60 bitrate=   6.4kbits/s speed=0.0366x elapsed=0:00:16.38    \nframe=   75 fps=4.4 q=48.0 size=       0KiB time=00:00:00.62 bitrate=   6.2kbits/s speed=0.0365x elapsed=0:00:17.10    \nframe=   77 fps=4.4 q=41.0 size=       0KiB time=00:00:00.64 bitrate=   6.0kbits/s speed=0.0364x elapsed=0:00:17.61    \nframe=   79 fps=4.4 q=44.0 size=       0KiB time=00:00:00.65 bitrate=   5.8kbits/s speed=0.0363x elapsed=0:00:18.14    \nframe=   81 fps=4.3 q=46.0 size=       0KiB time=00:00:00.67 bitrate=   5.7kbits/s speed=0.0361x elapsed=0:00:18.67    \nframe=   83 fps=4.3 q=47.0 size=       0KiB time=00:00:00.69 bitrate=   5.6kbits/s speed=0.036x elapsed=0:00:19.22    \nframe=   85 fps=4.3 q=47.0 size=       0KiB time=00:00:00.70 bitrate=   5.4kbits/s speed=0.0359x elapsed=0:00:19.74    \nframe=   87 fps=4.3 q=49.0 size=       0KiB time=00:00:00.72 bitrate=   5.3kbits/s speed=0.0358x elapsed=0:00:20.27    \nframe=   89 fps=4.3 q=46.0 size=       0KiB time=00:00:00.74 bitrate=   5.2kbits/s speed=0.0356x elapsed=0:00:20.81    \nframe=   90 fps=4.2 q=41.0 size=       0KiB time=00:00:00.75 bitrate=   5.1kbits/s speed=0.0351x elapsed=0:00:21.34    \nframe=   91 fps=4.2 q=33.0 size=       0KiB time=00:00:00.75 bitrate=   5.1kbits/s speed=0.0347x elapsed=0:00:21.87    \nframe=   93 fps=4.2 q=38.0 size=       0KiB time=00:00:00.77 bitrate=   5.0kbits/s speed=0.0346x elapsed=0:00:22.40    \nframe=   94 fps=4.1 q=42.0 size=       0KiB time=00:00:00.78 bitrate=   4.9kbits/s speed=0.0342x elapsed=0:00:22.93    \nframe=   96 fps=4.1 q=44.0 size=       0KiB time=00:00:00.80 bitrate=   4.8kbits/s speed=0.0341x elapsed=0:00:23.45    \nframe=   98 fps=4.1 q=45.0 size=       0KiB time=00:00:00.81 bitrate=   4.7kbits/s speed=0.0341x elapsed=0:00:23.97    \nframe=  100 fps=4.1 q=46.0 size=       0KiB time=00:00:00.83 bitrate=   4.6kbits/s speed=0.034x elapsed=0:00:24.50    \nframe=  102 fps=4.1 q=46.0 size=       0KiB time=00:00:00.85 bitrate=   4.5kbits/s speed=0.0339x elapsed=0:00:25.04    \nframe=  103 fps=4.0 q=40.0 size=       0KiB time=00:00:00.85 bitrate=   4.5kbits/s speed=0.0336x elapsed=0:00:25.57    \nframe=  104 fps=4.0 q=46.0 size=       0KiB time=00:00:00.86 bitrate=   4.4kbits/s speed=0.0332x elapsed=0:00:26.10    \nframe=  105 fps=3.9 q=40.0 size=       0KiB time=00:00:00.87 bitrate=   4.4kbits/s speed=0.0328x elapsed=0:00:26.65    \nframe=  107 fps=3.9 q=48.0 size=       0KiB time=00:00:00.88 bitrate=   4.4kbits/s speed=0.0325x elapsed=0:00:27.19    \nframe=  108 fps=3.9 q=41.0 size=       0KiB time=00:00:00.90 bitrate=   4.3kbits/s speed=0.0324x elapsed=0:00:27.74    \nframe=  110 fps=3.9 q=42.0 size=       0KiB time=00:00:00.91 bitrate=   4.2kbits/s speed=0.0324x elapsed=0:00:28.28    \nframe=  112 fps=3.9 q=43.0 size=       0KiB time=00:00:00.93 bitrate=   4.1kbits/s speed=0.0324x elapsed=0:00:28.80    \nframe=  114 fps=3.9 q=43.0 size=       0KiB time=00:00:00.95 bitrate=   4.1kbits/s speed=0.0324x elapsed=0:00:29.32    \nframe=  115 fps=3.9 q=46.0 size=       0KiB time=00:00:00.95 bitrate=   4.0kbits/s speed=0.0321x elapsed=0:00:29.85    \nframe=  116 fps=3.8 q=42.0 size=       0KiB time=00:00:00.96 bitrate=   4.0kbits/s speed=0.0318x elapsed=0:00:30.38    \nframe=  119 fps=3.8 q=39.0 size=       0KiB time=00:00:00.99 bitrate=   3.9kbits/s speed=0.0321x elapsed=0:00:30.91    \nframe=  120 fps=3.8 q=42.0 size=       0KiB time=00:00:01.00 bitrate=   3.8kbits/s speed=0.0318x elapsed=0:00:31.46    \nframe=  122 fps=3.8 q=45.0 size=       0KiB time=00:00:01.01 bitrate=   3.8kbits/s speed=0.0318x elapsed=0:00:31.98    \nframe=  124 fps=3.8 q=46.0 size=       0KiB time=00:00:01.03 bitrate=   3.7kbits/s speed=0.0318x elapsed=0:00:32.53    \nframe=  126 fps=3.8 q=47.0 size=       0KiB time=00:00:01.05 bitrate=   3.7kbits/s speed=0.0317x elapsed=0:00:33.08    \nframe=  128 fps=3.8 q=47.0 size=       0KiB time=00:00:01.06 bitrate=   3.6kbits/s speed=0.0317x elapsed=0:00:33.62    \nframe=  128 fps=3.7 q=47.0 size=       0KiB time=00:00:01.06 bitrate=   3.6kbits/s speed=0.0312x elapsed=0:00:34.17    \nframe=  131 fps=3.8 q=37.0 size=     256KiB time=00:00:01.09 bitrate=1921.1kbits/s speed=0.0315x elapsed=0:00:34.70    \nframe=  133 fps=3.8 q=39.0 size=     256KiB time=00:00:01.10 bitrate=1892.2kbits/s speed=0.0314x elapsed=0:00:35.25    \nframe=  134 fps=3.7 q=43.0 size=     256KiB time=00:00:01.11 bitrate=1878.0kbits/s speed=0.0312x elapsed=0:00:35.78    \nframe=  136 fps=3.7 q=44.0 size=     256KiB time=00:00:01.13 bitrate=1850.4kbits/s speed=0.0312x elapsed=0:00:36.35    \nframe=  138 fps=3.7 q=46.0 size=     256KiB time=00:00:01.15 bitrate=1823.6kbits/s speed=0.0312x elapsed=0:00:36.90    \nframe=  140 fps=3.7 q=47.0 size=     256KiB time=00:00:01.16 bitrate=1797.6kbits/s speed=0.0312x elapsed=0:00:37.43    \nframe=  142 fps=3.7 q=45.0 size=     256KiB time=00:00:01.18 bitrate=1772.2kbits/s speed=0.0312x elapsed=0:00:37.98    \nframe=  143 fps=3.7 q=41.0 size=     256KiB time=00:00:01.19 bitrate=1759.8kbits/s speed=0.0309x elapsed=0:00:38.53    \nframe=  145 fps=3.7 q=50.0 size=     256KiB time=00:00:01.20 bitrate=1735.6kbits/s speed=0.0309x elapsed=0:00:39.06    \nframe=  147 fps=3.7 q=42.0 size=     256KiB time=00:00:01.22 bitrate=1712.0kbits/s speed=0.0309x elapsed=0:00:39.61    \nframe=  148 fps=3.7 q=43.0 size=     256KiB time=00:00:01.23 bitrate=1700.4kbits/s speed=0.0307x elapsed=0:00:40.15    \nframe=  150 fps=3.7 q=44.0 size=     256KiB time=00:00:01.25 bitrate=1677.7kbits/s speed=0.0307x elapsed=0:00:40.66    \nframe=  152 fps=3.7 q=44.0 size=     256KiB time=00:00:01.26 bitrate=1655.6kbits/s speed=0.0307x elapsed=0:00:41.20    \nframe=  154 fps=3.7 q=44.0 size=     256KiB time=00:00:01.28 bitrate=1634.1kbits/s speed=0.0307x elapsed=0:00:41.74    \nframe=  156 fps=3.7 q=44.0 size=     256KiB time=00:00:01.29 bitrate=1623.6kbits/s speed=0.0305x elapsed=0:00:42.29    \nframe=  157 fps=3.7 q=49.0 size=     256KiB time=00:00:01.30 bitrate=1602.9kbits/s speed=0.0305x elapsed=0:00:42.83    \nframe=  158 fps=3.6 q=43.0 size=     256KiB time=00:00:01.31 bitrate=1592.8kbits/s speed=0.0304x elapsed=0:00:43.35    \nframe=  160 fps=3.6 q=49.0 size=     256KiB time=00:00:01.32 bitrate=1582.8kbits/s speed=0.0302x elapsed=0:00:43.88    \nframe=  161 fps=3.6 q=41.0 size=     256KiB time=00:00:01.34 bitrate=1563.1kbits/s speed=0.0302x elapsed=0:00:44.42    \nframe=  163 fps=3.6 q=42.0 size=     256KiB time=00:00:01.35 bitrate=1543.9kbits/s speed=0.0302x elapsed=0:00:44.97    \nframe=  164 fps=3.6 q=44.0 size=     256KiB time=00:00:01.36 bitrate=1534.5kbits/s speed=0.03x elapsed=0:00:45.51    \nframe=  166 fps=3.6 q=45.0 size=     256KiB time=00:00:01.38 bitrate=1516.0kbits/s speed=0.03x elapsed=0:00:46.06    \nframe=  168 fps=3.6 q=46.0 size=     256KiB time=00:00:01.40 bitrate=1498.0kbits/s speed=0.03x elapsed=0:00:46.59    \nframe=  170 fps=3.6 q=48.0 size=     256KiB time=00:00:01.41 bitrate=1480.3kbits/s speed=0.0301x elapsed=0:00:47.11    \nframe=  172 fps=3.6 q=49.0 size=     256KiB time=00:00:01.43 bitrate=1463.1kbits/s speed=0.0301x elapsed=0:00:47.65    \nframe=  173 fps=3.6 q=42.0 size=     256KiB time=00:00:01.44 bitrate=1454.7kbits/s speed=0.0299x elapsed=0:00:48.19    \nframe=  175 fps=3.6 q=45.0 size=     256KiB time=00:00:01.45 bitrate=1438.0kbits/s speed=0.0299x elapsed=0:00:48.72    \nframe=  176 fps=3.6 q=38.0 size=     256KiB time=00:00:01.46 bitrate=1429.9kbits/s speed=0.0298x elapsed=0:00:49.25    \nframe=  178 fps=3.6 q=40.0 size=     256KiB time=00:00:01.48 bitrate=1413.8kbits/s speed=0.0298x elapsed=0:00:49.76    \nframe=  179 fps=3.6 q=44.0 size=     256KiB time=00:00:01.49 bitrate=1405.9kbits/s speed=0.0297x elapsed=0:00:50.30    \nframe=  181 fps=3.6 q=45.0 size=     256KiB time=00:00:01.50 bitrate=1390.4kbits/s speed=0.0297x elapsed=0:00:50.83    \nframe=  183 fps=3.6 q=46.0 size=     256KiB time=00:00:01.52 bitrate=1375.2kbits/s speed=0.0297x elapsed=0:00:51.36    \nframe=  185 fps=3.6 q=46.0 size=     256KiB time=00:00:01.54 bitrate=1360.3kbits/s speed=0.0297x elapsed=0:00:51.88    \nframe=  187 fps=3.6 q=47.0 size=     256KiB time=00:00:01.55 bitrate=1345.8kbits/s speed=0.0297x elapsed=0:00:52.43    \nframe=  188 fps=3.5 q=40.0 size=     256KiB time=00:00:01.56 bitrate=1338.6kbits/s speed=0.0296x elapsed=0:00:52.99    \nframe=  190 fps=3.5 q=46.0 size=     256KiB time=00:00:01.58 bitrate=1324.5kbits/s speed=0.0296x elapsed=0:00:53.53    \nframe=  191 fps=3.5 q=38.0 size=     256KiB time=00:00:01.59 bitrate=1317.6kbits/s speed=0.0294x elapsed=0:00:54.06    \nframe=  193 fps=3.5 q=40.0 size=     256KiB time=00:00:01.60 bitrate=1303.9kbits/s speed=0.0295x elapsed=0:00:54.59    \nframe=  194 fps=3.5 q=43.0 size=     256KiB time=00:00:01.61 bitrate=1297.2kbits/s speed=0.0293x elapsed=0:00:55.12    \nframe=  196 fps=3.5 q=44.0 size=     256KiB time=00:00:01.63 bitrate=1284.0kbits/s speed=0.0293x elapsed=0:00:55.65    \nframe=  198 fps=3.5 q=45.0 size=     256KiB time=00:00:01.65 bitrate=1271.0kbits/s speed=0.0294x elapsed=0:00:56.18    \nframe=  200 fps=3.5 q=46.0 size=     256KiB time=00:00:01.66 bitrate=1258.3kbits/s speed=0.0294x elapsed=0:00:56.71    \nframe=  202 fps=3.5 q=46.0 size=     256KiB time=00:00:01.68 bitrate=1245.8kbits/s speed=0.0294x elapsed=0:00:57.24    \nframe=  203 fps=3.5 q=40.0 size=     256KiB time=00:00:01.69 bitrate=1239.7kbits/s speed=0.0293x elapsed=0:00:57.78    \nframe=  205 fps=3.5 q=45.0 size=     256KiB time=00:00:01.70 bitrate=1227.6kbits/s speed=0.0293x elapsed=0:00:58.32    \nframe=  206 fps=3.5 q=38.0 size=     256KiB time=00:00:01.71 bitrate=1221.6kbits/s speed=0.0292x elapsed=0:00:58.87    \nframe=  208 fps=3.5 q=40.0 size=     256KiB time=00:00:01.73 bitrate=1209.9kbits/s speed=0.0292x elapsed=0:00:59.40    \nframe=  210 fps=3.5 q=40.0 size=     256KiB time=00:00:01.75 bitrate=1198.4kbits/s speed=0.0292x elapsed=0:00:59.93    \nframe=  211 fps=3.5 q=44.0 size=     256KiB time=00:00:01.75 bitrate=1192.7kbits/s speed=0.0291x elapsed=0:01:00.46    \nframe=  213 fps=3.5 q=45.0 size=     256KiB time=00:00:01.77 bitrate=1181.5kbits/s speed=0.0291x elapsed=0:01:00.99    \nframe=  215 fps=3.5 q=45.0 size=     256KiB time=00:00:01.79 bitrate=1170.5kbits/s speed=0.0291x elapsed=0:01:01.52    \nframe=  217 fps=3.5 q=46.0 size=     256KiB time=00:00:01.80 bitrate=1159.7kbits/s speed=0.0291x elapsed=0:01:02.08    \nframe=  218 fps=3.5 q=39.0 size=     256KiB time=00:00:01.81 bitrate=1154.4kbits/s speed=0.029x elapsed=0:01:02.60    \nframe=  220 fps=3.5 q=46.0 size=     256KiB time=00:00:01.83 bitrate=1143.9kbits/s speed=0.029x elapsed=0:01:03.12    \nframe=  221 fps=3.5 q=38.0 size=     256KiB time=00:00:01.84 bitrate=1138.7kbits/s speed=0.0289x elapsed=0:01:03.66    \nframe=  223 fps=3.5 q=40.0 size=     256KiB time=00:00:01.85 bitrate=1128.5kbits/s speed=0.0289x elapsed=0:01:04.19    \nframe=  225 fps=3.5 q=41.0 size=     256KiB time=00:00:01.87 bitrate=1118.5kbits/s speed=0.029x elapsed=0:01:04.73    \nframe=  226 fps=3.5 q=43.0 size=     256KiB time=00:00:01.88 bitrate=1113.5kbits/s speed=0.0289x elapsed=0:01:05.26    \nframe=  228 fps=3.5 q=45.0 size=     256KiB time=00:00:01.90 bitrate=1103.8kbits/s speed=0.0289x elapsed=0:01:05.80    \nframe=  230 fps=3.5 q=46.0 size=     256KiB time=00:00:01.91 bitrate=1094.2kbits/s speed=0.0289x elapsed=0:01:06.31    \nframe=  232 fps=3.5 q=46.0 size=     256KiB time=00:00:01.93 bitrate=1084.7kbits/s speed=0.0289x elapsed=0:01:06.85    \nframe=  233 fps=3.5 q=40.0 size=     256KiB time=00:00:01.94 bitrate=1080.1kbits/s speed=0.0288x elapsed=0:01:07.41    \nframe=  235 fps=3.5 q=47.0 size=     256KiB time=00:00:01.95 bitrate=1070.9kbits/s speed=0.0288x elapsed=0:01:07.95    \nframe=  236 fps=3.4 q=39.0 size=     256KiB time=00:00:01.96 bitrate=1066.3kbits/s speed=0.0287x elapsed=0:01:08.49    \nframe=  238 fps=3.4 q=41.0 size=     256KiB time=00:00:01.98 bitrate=1057.4kbits/s speed=0.0287x elapsed=0:01:09.02    \nframe=  240 fps=3.5 q=41.0 size=     256KiB time=00:00:02.00 bitrate=1048.6kbits/s speed=0.0288x elapsed=0:01:09.56    \nframe=  242 fps=3.5 q=41.0 size=     256KiB time=00:00:02.01 bitrate=1039.9kbits/s speed=0.0288x elapsed=0:01:10.10    \nframe=  243 fps=3.4 q=46.0 size=     256KiB time=00:00:02.02 bitrate=1035.6kbits/s speed=0.0287x elapsed=0:01:10.64    \nframe=  245 fps=3.4 q=33.0 size=     256KiB time=00:00:02.04 bitrate=1027.2kbits/s speed=0.0287x elapsed=0:01:11.16    \nframe=  247 fps=3.4 q=40.0 size=     256KiB time=00:00:02.05 bitrate=1018.9kbits/s speed=0.0287x elapsed=0:01:11.68    \nframe=  248 fps=3.4 q=43.0 size=     256KiB time=00:00:02.06 bitrate=1014.8kbits/s speed=0.0286x elapsed=0:01:12.22    \nframe=  250 fps=3.4 q=44.0 size=     256KiB time=00:00:02.08 bitrate=1006.6kbits/s speed=0.0286x elapsed=0:01:12.75    \nframe=  252 fps=3.4 q=43.0 size=     256KiB time=00:00:02.10 bitrate= 998.6kbits/s speed=0.0287x elapsed=0:01:13.29    \nframe=  254 fps=3.4 q=44.0 size=     256KiB time=00:00:02.11 bitrate= 990.8kbits/s speed=0.0287x elapsed=0:01:13.82    \nframe=  255 fps=3.4 q=42.0 size=     256KiB time=00:00:02.12 bitrate= 986.9kbits/s speed=0.0286x elapsed=0:01:14.35    \nframe=  256 fps=3.4 q=46.0 size=     256KiB time=00:00:02.13 bitrate= 983.0kbits/s speed=0.0285x elapsed=0:01:14.89    \nframe=  258 fps=3.4 q=42.0 size=     768KiB time=00:00:02.15 bitrate=2926.3kbits/s speed=0.0285x elapsed=0:01:15.43    \nframe=  261 fps=3.4 q=41.0 size=     768KiB time=00:00:02.17 bitrate=2892.6kbits/s speed=0.0286x elapsed=0:01:15.97    \nframe=  263 fps=3.4 q=43.0 size=     768KiB time=00:00:02.19 bitrate=2870.6kbits/s speed=0.0286x elapsed=0:01:16.51    \nframe=  264 fps=3.4 q=35.0 size=     768KiB time=00:00:02.20 bitrate=2859.8kbits/s speed=0.0285x elapsed=0:01:17.06    \nframe=  266 fps=3.4 q=40.0 size=     768KiB time=00:00:02.21 bitrate=2838.3kbits/s speed=0.0286x elapsed=0:01:17.60    \nframe=  268 fps=3.4 q=42.0 size=     768KiB time=00:00:02.23 bitrate=2817.1kbits/s speed=0.0286x elapsed=0:01:18.12    \nframe=  270 fps=3.4 q=43.0 size=     768KiB time=00:00:02.25 bitrate=2796.2kbits/s speed=0.0286x elapsed=0:01:18.67    \nframe=  271 fps=3.4 q=35.0 size=     768KiB time=00:00:02.25 bitrate=2785.9kbits/s speed=0.0285x elapsed=0:01:19.21    \nframe=  273 fps=3.4 q=41.0 size=     768KiB time=00:00:02.27 bitrate=2765.5kbits/s speed=0.0285x elapsed=0:01:19.75    \nframe=  275 fps=3.4 q=42.0 size=     768KiB time=00:00:02.29 bitrate=2745.4kbits/s speed=0.0285x elapsed=0:01:20.28    \nframe=  277 fps=3.4 q=43.0 size=     768KiB time=00:00:02.30 bitrate=2735.4kbits/s speed=0.0285x elapsed=0:01:20.80    \nframe=  278 fps=3.4 q=35.0 size=     768KiB time=00:00:02.31 bitrate=2715.7kbits/s speed=0.0285x elapsed=0:01:21.34    \nframe=  280 fps=3.4 q=41.0 size=     768KiB time=00:00:02.33 bitrate=2696.3kbits/s speed=0.0285x elapsed=0:01:21.88    \nframe=  281 fps=3.4 q=43.0 size=     768KiB time=00:00:02.34 bitrate=2686.7kbits/s speed=0.0284x elapsed=0:01:22.42    \nframe=  283 fps=3.4 q=45.0 size=     768KiB time=00:00:02.35 bitrate=2667.8kbits/s speed=0.0284x elapsed=0:01:22.95    \nframe=  284 fps=3.4 q=43.0 size=     768KiB time=00:00:02.36 bitrate=2658.4kbits/s speed=0.0284x elapsed=0:01:23.46    \nframe=  287 fps=3.4 q=40.0 size=     768KiB time=00:00:02.39 bitrate=2630.6kbits/s speed=0.0285x elapsed=0:01:24.00    \nframe=  289 fps=3.4 q=42.0 size=     768KiB time=00:00:02.40 bitrate=2612.4kbits/s speed=0.0285x elapsed=0:01:24.55    \nframe=  290 fps=3.4 q=46.0 size=     768KiB time=00:00:02.41 bitrate=2603.4kbits/s speed=0.0284x elapsed=0:01:25.07    \nframe=  291 fps=3.4 q=42.0 size=     768KiB time=00:00:02.42 bitrate=2594.4kbits/s speed=0.0283x elapsed=0:01:25.59    \nframe=  294 fps=3.4 q=41.0 size=     768KiB time=00:00:02.45 bitrate=2567.9kbits/s speed=0.0284x elapsed=0:01:26.12    \nframe=  296 fps=3.4 q=43.0 size=     768KiB time=00:00:02.45 bitrate=2559.2kbits/s speed=0.0284x elapsed=0:01:26.64    \nframe=  298 fps=3.4 q=44.0 size=     768KiB time=00:00:02.47 bitrate=2542.0kbits/s speed=0.0284x elapsed=0:01:27.16    \nframe=  299 fps=3.4 q=36.0 size=     768KiB time=00:00:02.49 bitrate=2525.0kbits/s speed=0.0284x elapsed=0:01:27.71    \nframe=  301 fps=3.4 q=40.0 size=     768KiB time=00:00:02.50 bitrate=2508.2kbits/s speed=0.0284x elapsed=0:01:28.25    \nframe=  303 fps=3.4 q=42.0 size=     768KiB time=00:00:02.51 bitrate=2499.9kbits/s speed=0.0283x elapsed=0:01:28.80    \nframe=  305 fps=3.4 q=42.0 size=     768KiB time=00:00:02.54 bitrate=2475.3kbits/s speed=0.0284x elapsed=0:01:29.35    \nframe=  306 fps=3.4 q=34.0 size=     768KiB time=00:00:02.55 bitrate=2467.2kbits/s speed=0.0284x elapsed=0:01:29.89    \nframe=  308 fps=3.4 q=41.0 size=     768KiB time=00:00:02.56 bitrate=2451.2kbits/s speed=0.0284x elapsed=0:01:30.42    \nframe=  310 fps=3.4 q=42.0 size=     768KiB time=00:00:02.58 bitrate=2435.4kbits/s speed=0.0284x elapsed=0:01:30.97    \nframe=  311 fps=3.4 q=45.0 size=     768KiB time=00:00:02.59 bitrate=2427.6kbits/s speed=0.0283x elapsed=0:01:31.49    \nframe=  313 fps=3.4 q=36.0 size=     768KiB time=00:00:02.60 bitrate=2412.1kbits/s speed=0.0283x elapsed=0:01:32.02    \nframe=  315 fps=3.4 q=41.0 size=     768KiB time=00:00:02.62 bitrate=2396.7kbits/s speed=0.0284x elapsed=0:01:32.55    \nframe=  317 fps=3.4 q=42.0 size=     768KiB time=00:00:02.64 bitrate=2381.6kbits/s speed=0.0284x elapsed=0:01:33.07    \nframe=  319 fps=3.4 q=43.0 size=     768KiB time=00:00:02.65 bitrate=2366.7kbits/s speed=0.0284x elapsed=0:01:33.61    \nframe=  320 fps=3.4 q=35.0 size=     768KiB time=00:00:02.66 bitrate=2359.3kbits/s speed=0.0283x elapsed=0:01:34.13    \nframe=  322 fps=3.4 q=40.0 size=     768KiB time=00:00:02.68 bitrate=2344.6kbits/s speed=0.0283x elapsed=0:01:34.65    \nframe=  324 fps=3.4 q=42.0 size=     768KiB time=00:00:02.70 bitrate=2330.2kbits/s speed=0.0284x elapsed=0:01:35.18    \nframe=  326 fps=3.4 q=43.0 size=     768KiB time=00:00:02.71 bitrate=2315.9kbits/s speed=0.0284x elapsed=0:01:35.71    \nframe=  327 fps=3.4 q=35.0 size=     768KiB time=00:00:02.72 bitrate=2308.8kbits/s speed=0.0283x elapsed=0:01:36.24    \nframe=  329 fps=3.4 q=41.0 size=     768KiB time=00:00:02.74 bitrate=2294.8kbits/s speed=0.0283x elapsed=0:01:36.76    \nframe=  331 fps=3.4 q=43.0 size=     768KiB time=00:00:02.75 bitrate=2280.9kbits/s speed=0.0283x elapsed=0:01:37.30    \nframe=  333 fps=3.4 q=43.0 size=     768KiB time=00:00:02.77 bitrate=2267.2kbits/s speed=0.0284x elapsed=0:01:37.83    \nframe=  334 fps=3.4 q=36.0 size=     768KiB time=00:00:02.78 bitrate=2260.4kbits/s speed=0.0283x elapsed=0:01:38.36    \nframe=  336 fps=3.4 q=40.0 size=     768KiB time=00:00:02.80 bitrate=2246.9kbits/s speed=0.0283x elapsed=0:01:38.90    \nframe=  338 fps=3.4 q=42.0 size=     768KiB time=00:00:02.81 bitrate=2233.7kbits/s speed=0.0283x elapsed=0:01:39.43    \nframe=  340 fps=3.4 q=43.0 size=     768KiB time=00:00:02.83 bitrate=2220.5kbits/s speed=0.0283x elapsed=0:01:39.97    \nframe=  341 fps=3.4 q=35.0 size=     768KiB time=00:00:02.84 bitrate=2214.0kbits/s speed=0.0283x elapsed=0:01:40.49    \nframe=  343 fps=3.4 q=41.0 size=     768KiB time=00:00:02.85 bitrate=2201.1kbits/s speed=0.0283x elapsed=0:01:41.01    \nframe=  345 fps=3.4 q=43.0 size=     768KiB time=00:00:02.86 bitrate=2194.7kbits/s speed=0.0282x elapsed=0:01:41.55    \nframe=  346 fps=3.4 q=44.0 size=     768KiB time=00:00:02.88 bitrate=2182.0kbits/s speed=0.0282x elapsed=0:01:42.07    \nframe=  347 fps=3.4 q=44.0 size=     768KiB time=00:00:02.89 bitrate=2175.7kbits/s speed=0.0282x elapsed=0:01:42.61    \nframe=  349 fps=3.4 q=45.0 size=     768KiB time=00:00:02.90 bitrate=2163.3kbits/s speed=0.0282x elapsed=0:01:43.13    \nframe=  351 fps=3.4 q=44.0 size=     768KiB time=00:00:02.92 bitrate=2150.9kbits/s speed=0.0282x elapsed=0:01:43.66    \nframe=  353 fps=3.4 q=45.0 size=     768KiB time=00:00:02.94 bitrate=2138.7kbits/s speed=0.0282x elapsed=0:01:44.20    \nframe=  354 fps=3.4 q=43.0 size=     768KiB time=00:00:02.95 bitrate=2132.7kbits/s speed=0.0282x elapsed=0:01:44.74    \nframe=  356 fps=3.4 q=46.0 size=     768KiB time=00:00:02.96 bitrate=2120.7kbits/s speed=0.0282x elapsed=0:01:45.28    \nframe=  358 fps=3.4 q=43.0 size=     768KiB time=00:00:02.98 bitrate=2108.9kbits/s speed=0.0282x elapsed=0:01:45.81    \nframe=  360 fps=3.4 q=44.0 size=     768KiB time=00:00:03.00 bitrate=2097.2kbits/s speed=0.0282x elapsed=0:01:46.34    \nframe=  361 fps=3.4 q=43.0 size=     768KiB time=00:00:03.00 bitrate=2091.3kbits/s speed=0.0281x elapsed=0:01:46.87    \nframe=  363 fps=3.4 q=45.0 size=     768KiB time=00:00:03.02 bitrate=2079.8kbits/s speed=0.0282x elapsed=0:01:47.39    \nframe=  365 fps=3.4 q=43.0 size=     768KiB time=00:00:03.04 bitrate=2068.4kbits/s speed=0.0282x elapsed=0:01:47.92    \nframe=  367 fps=3.4 q=45.0 size=     768KiB time=00:00:03.05 bitrate=2057.2kbits/s speed=0.0282x elapsed=0:01:48.47    \nframe=  368 fps=3.4 q=43.0 size=     768KiB time=00:00:03.06 bitrate=2051.6kbits/s speed=0.0281x elapsed=0:01:48.99    \nframe=  370 fps=3.4 q=46.0 size=     768KiB time=00:00:03.08 bitrate=2040.5kbits/s speed=0.0282x elapsed=0:01:49.52    \nframe=  372 fps=3.4 q=43.0 size=     768KiB time=00:00:03.10 bitrate=2029.5kbits/s speed=0.0282x elapsed=0:01:50.06    \nframe=  374 fps=3.4 q=45.0 size=     768KiB time=00:00:03.10 bitrate=2024.1kbits/s speed=0.0281x elapsed=0:01:50.59    \nframe=  375 fps=3.4 q=42.0 size=     768KiB time=00:00:03.12 bitrate=2013.3kbits/s speed=0.0281x elapsed=0:01:51.12    \nframe=  377 fps=3.4 q=45.0 size=     768KiB time=00:00:03.14 bitrate=2002.6kbits/s speed=0.0281x elapsed=0:01:51.65    \nframe=  379 fps=3.4 q=42.0 size=     768KiB time=00:00:03.15 bitrate=1992.0kbits/s speed=0.0282x elapsed=0:01:52.19    \nframe=  380 fps=3.4 q=41.0 size=     768KiB time=00:00:03.16 bitrate=1986.8kbits/s speed=0.0281x elapsed=0:01:52.72    \nframe=  382 fps=3.4 q=42.0 size=     768KiB time=00:00:03.18 bitrate=1976.4kbits/s speed=0.0281x elapsed=0:01:53.26    \nframe=  384 fps=3.4 q=42.0 size=     768KiB time=00:00:03.20 bitrate=1966.1kbits/s speed=0.0281x elapsed=0:01:53.79    \nframe=  385 fps=3.4 q=34.0 size=     768KiB time=00:00:03.20 bitrate=1961.0kbits/s speed=0.0281x elapsed=0:01:54.32    \nframe=  387 fps=3.4 q=41.0 size=    1280KiB time=00:00:03.22 bitrate=3251.4kbits/s speed=0.0281x elapsed=0:01:54.85    \nframe=  389 fps=3.4 q=43.0 size=    1280KiB time=00:00:03.24 bitrate=3234.7kbits/s speed=0.0281x elapsed=0:01:55.39    \nframe=  391 fps=3.4 q=44.0 size=    1280KiB time=00:00:03.25 bitrate=3218.1kbits/s speed=0.0281x elapsed=0:01:55.92    \nframe=  393 fps=3.4 q=45.0 size=    1280KiB time=00:00:03.27 bitrate=3201.8kbits/s speed=0.0281x elapsed=0:01:56.47    \nframe=  395 fps=3.4 q=43.0 size=    1280KiB time=00:00:03.29 bitrate=3185.5kbits/s speed=0.0281x elapsed=0:01:57.01    \nframe=  396 fps=3.4 q=42.0 size=    1280KiB time=00:00:03.30 bitrate=3177.5kbits/s speed=0.0281x elapsed=0:01:57.53    \nframe=  398 fps=3.4 q=43.0 size=    1280KiB time=00:00:03.31 bitrate=3161.5kbits/s speed=0.0281x elapsed=0:01:58.07    \nframe=  399 fps=3.4 q=35.0 size=    1280KiB time=00:00:03.31 bitrate=3161.5kbits/s speed=0.028x elapsed=0:01:58.61    \nframe=  401 fps=3.4 q=41.0 size=    1280KiB time=00:00:03.34 bitrate=3137.9kbits/s speed=0.028x elapsed=0:01:59.13    \nframe=  402 fps=3.4 q=43.0 size=    1280KiB time=00:00:03.35 bitrate=3130.1kbits/s speed=0.028x elapsed=0:01:59.67    \nframe=  404 fps=3.4 q=45.0 size=    1280KiB time=00:00:03.36 bitrate=3114.6kbits/s speed=0.028x elapsed=0:02:00.20    \nframe=  405 fps=3.4 q=43.0 size=    1280KiB time=00:00:03.37 bitrate=3106.9kbits/s speed=0.0279x elapsed=0:02:00.75    \nframe=  407 fps=3.4 q=43.0 size=    1280KiB time=00:00:03.39 bitrate=3091.6kbits/s speed=0.028x elapsed=0:02:01.30    \nframe=  409 fps=3.4 q=42.0 size=    1280KiB time=00:00:03.40 bitrate=3076.5kbits/s speed=0.028x elapsed=0:02:01.84    \nframe=  410 fps=3.3 q=39.0 size=    1280KiB time=00:00:03.41 bitrate=3069.0kbits/s speed=0.0279x elapsed=0:02:02.39    \nframe=  412 fps=3.4 q=40.0 size=    1280KiB time=00:00:03.43 bitrate=3054.1kbits/s speed=0.0279x elapsed=0:02:02.93    \nframe=  413 fps=3.3 q=45.0 size=    1280KiB time=00:00:03.44 bitrate=3046.7kbits/s speed=0.0279x elapsed=0:02:03.48    \nframe=  415 fps=3.3 q=45.0 size=    1280KiB time=00:00:03.45 bitrate=3032.0kbits/s speed=0.0279x elapsed=0:02:04.01    \nframe=  417 fps=3.3 q=45.0 size=    1280KiB time=00:00:03.47 bitrate=3017.5kbits/s speed=0.0279x elapsed=0:02:04.54    \nframe=  419 fps=3.3 q=46.0 size=    1280KiB time=00:00:03.49 bitrate=3003.1kbits/s speed=0.0279x elapsed=0:02:05.08    \nframe=  420 fps=3.3 q=40.0 size=    1280KiB time=00:00:03.50 bitrate=2995.9kbits/s speed=0.0279x elapsed=0:02:05.62    \nframe=  422 fps=3.3 q=47.0 size=    1280KiB time=00:00:03.51 bitrate=2981.7kbits/s speed=0.0279x elapsed=0:02:06.17    \nframe=  424 fps=3.3 q=42.0 size=    1280KiB time=00:00:03.53 bitrate=2967.7kbits/s speed=0.0279x elapsed=0:02:06.72    \nframe=  425 fps=3.3 q=41.0 size=    1280KiB time=00:00:03.54 bitrate=2960.7kbits/s speed=0.0278x elapsed=0:02:07.23    \nframe=  427 fps=3.3 q=41.0 size=    1280KiB time=00:00:03.55 bitrate=2946.8kbits/s speed=0.0278x elapsed=0:02:07.77    \nframe=  429 fps=3.3 q=41.0 size=    1280KiB time=00:00:03.57 bitrate=2933.1kbits/s speed=0.0279x elapsed=0:02:08.32    \nframe=  431 fps=3.3 q=41.0 size=    1280KiB time=00:00:03.59 bitrate=2919.5kbits/s speed=0.0279x elapsed=0:02:08.84    \nframe=  432 fps=3.3 q=46.0 size=    1280KiB time=00:00:03.60 bitrate=2912.7kbits/s speed=0.0278x elapsed=0:02:09.38    \nframe=  434 fps=3.3 q=47.0 size=    1280KiB time=00:00:03.61 bitrate=2899.3kbits/s speed=0.0278x elapsed=0:02:09.92    \nframe=  435 fps=3.3 q=40.0 size=    1280KiB time=00:00:03.62 bitrate=2892.6kbits/s speed=0.0278x elapsed=0:02:10.44    \nframe=  437 fps=3.3 q=46.0 size=    1280KiB time=00:00:03.64 bitrate=2879.4kbits/s speed=0.0278x elapsed=0:02:10.98    \nframe=  439 fps=3.3 q=41.0 size=    1280KiB time=00:00:03.65 bitrate=2866.3kbits/s speed=0.0278x elapsed=0:02:11.54    \nframe=  441 fps=3.3 q=43.0 size=    1280KiB time=00:00:03.67 bitrate=2853.3kbits/s speed=0.0278x elapsed=0:02:12.08    \nframe=  443 fps=3.3 q=44.0 size=    1280KiB time=00:00:03.69 bitrate=2840.4kbits/s speed=0.0278x elapsed=0:02:12.64    \nframe=  444 fps=3.3 q=41.0 size=    1280KiB time=00:00:03.70 bitrate=2834.0kbits/s speed=0.0278x elapsed=0:02:13.18    \nframe=  446 fps=3.3 q=41.0 size=    1280KiB time=00:00:03.71 bitrate=2821.3kbits/s speed=0.0278x elapsed=0:02:13.72    \nframe=  448 fps=3.3 q=40.0 size=    1280KiB time=00:00:03.73 bitrate=2808.7kbits/s speed=0.0278x elapsed=0:02:14.24    \nframe=  450 fps=3.3 q=40.0 size=    1280KiB time=00:00:03.75 bitrate=2796.2kbits/s speed=0.0278x elapsed=0:02:14.79    \nframe=  451 fps=3.3 q=32.0 size=    1280KiB time=00:00:03.75 bitrate=2790.0kbits/s speed=0.0278x elapsed=0:02:15.32    \nframe=  453 fps=3.3 q=39.0 size=    1280KiB time=00:00:03.77 bitrate=2777.7kbits/s speed=0.0278x elapsed=0:02:15.84    \nframe=  455 fps=3.3 q=41.0 size=    1280KiB time=00:00:03.79 bitrate=2765.5kbits/s speed=0.0278x elapsed=0:02:16.37    \nframe=  457 fps=3.3 q=42.0 size=    1280KiB time=00:00:03.80 bitrate=2753.4kbits/s speed=0.0278x elapsed=0:02:16.90    \nframe=  459 fps=3.3 q=42.0 size=    1280KiB time=00:00:03.82 bitrate=2741.4kbits/s speed=0.0278x elapsed=0:02:17.43    \nframe=  461 fps=3.3 q=42.0 size=    1280KiB time=00:00:03.84 bitrate=2729.5kbits/s speed=0.0278x elapsed=0:02:17.96    \nframe=  463 fps=3.3 q=42.0 size=    1280KiB time=00:00:03.85 bitrate=2717.7kbits/s speed=0.0279x elapsed=0:02:18.50    \nframe=  465 fps=3.3 q=41.0 size=    1280KiB time=00:00:03.87 bitrate=2706.0kbits/s speed=0.0279x elapsed=0:02:19.04    \nframe=  466 fps=3.3 q=33.0 size=    1280KiB time=00:00:03.88 bitrate=2700.2kbits/s speed=0.0278x elapsed=0:02:19.57    \nframe=  468 fps=3.3 q=39.0 size=    1280KiB time=00:00:03.90 bitrate=2688.7kbits/s speed=0.0278x elapsed=0:02:20.09    \nframe=  469 fps=3.3 q=41.0 size=    1280KiB time=00:00:03.90 bitrate=2682.9kbits/s speed=0.0278x elapsed=0:02:20.62    \nframe=  471 fps=3.3 q=43.0 size=    1280KiB time=00:00:03.92 bitrate=2671.5kbits/s speed=0.0278x elapsed=0:02:21.15    \nframe=  473 fps=3.3 q=44.0 size=    1280KiB time=00:00:03.93 bitrate=2665.9kbits/s speed=0.0278x elapsed=0:02:21.68    \nframe=  474 fps=3.3 q=41.0 size=    1280KiB time=00:00:03.95 bitrate=2654.6kbits/s speed=0.0278x elapsed=0:02:22.20    \nframe=  476 fps=3.3 q=41.0 size=    1280KiB time=00:00:03.95 bitrate=2649.0kbits/s speed=0.0277x elapsed=0:02:22.72    \nframe=  477 fps=3.3 q=46.0 size=    1280KiB time=00:00:03.97 bitrate=2637.9kbits/s speed=0.0277x elapsed=0:02:23.25    \nframe=  479 fps=3.3 q=46.0 size=    1280KiB time=00:00:03.99 bitrate=2626.9kbits/s speed=0.0278x elapsed=0:02:23.78    \nframe=  480 fps=3.3 q=41.0 size=    1280KiB time=00:00:04.00 bitrate=2621.4kbits/s speed=0.0277x elapsed=0:02:24.31    \nframe=  481 fps=3.3 q=33.0 size=    1280KiB time=00:00:04.00 bitrate=2616.0kbits/s speed=0.0277x elapsed=0:02:24.86    \nframe=  483 fps=3.3 q=42.0 size=    1280KiB time=00:00:04.02 bitrate=2605.2kbits/s speed=0.0277x elapsed=0:02:25.39    \nframe=  485 fps=3.3 q=43.0 size=    1280KiB time=00:00:04.04 bitrate=2594.4kbits/s speed=0.0277x elapsed=0:02:25.92    \nframe=  487 fps=3.3 q=44.0 size=    1280KiB time=00:00:04.05 bitrate=2583.8kbits/s speed=0.0277x elapsed=0:02:26.45    \nframe=  488 fps=3.3 q=36.0 size=    1280KiB time=00:00:04.06 bitrate=2578.5kbits/s speed=0.0277x elapsed=0:02:26.99    \nframe=  490 fps=3.3 q=40.0 size=    1280KiB time=00:00:04.08 bitrate=2567.9kbits/s speed=0.0277x elapsed=0:02:27.52    \nframe=  492 fps=3.3 q=41.0 size=    1280KiB time=00:00:04.10 bitrate=2557.5kbits/s speed=0.0277x elapsed=0:02:28.05    \nframe=  494 fps=3.3 q=42.0 size=    1280KiB time=00:00:04.11 bitrate=2547.1kbits/s speed=0.0277x elapsed=0:02:28.59    \nframe=  496 fps=3.3 q=43.0 size=    1280KiB time=00:00:04.13 bitrate=2536.9kbits/s speed=0.0277x elapsed=0:02:29.12    \nframe=  497 fps=3.3 q=46.0 size=    1280KiB time=00:00:04.14 bitrate=2531.8kbits/s speed=0.0277x elapsed=0:02:29.65    \nframe=  499 fps=3.3 q=46.0 size=    1280KiB time=00:00:04.15 bitrate=2521.6kbits/s speed=0.0277x elapsed=0:02:30.18    \nframe=  500 fps=3.3 q=34.0 size=    1280KiB time=00:00:04.16 bitrate=2516.6kbits/s speed=0.0276x elapsed=0:02:30.71    \nframe=  502 fps=3.3 q=40.0 size=    1280KiB time=00:00:04.18 bitrate=2506.6kbits/s speed=0.0277x elapsed=0:02:31.23    \nframe=  504 fps=3.3 q=42.0 size=    1280KiB time=00:00:04.20 bitrate=2496.6kbits/s speed=0.0277x elapsed=0:02:31.76    \nframe=  505 fps=3.3 q=44.0 size=    1280KiB time=00:00:04.20 bitrate=2491.7kbits/s speed=0.0276x elapsed=0:02:32.28    \nframe=  507 fps=3.3 q=45.0 size=    1280KiB time=00:00:04.22 bitrate=2481.8kbits/s speed=0.0276x elapsed=0:02:32.85    \nframe=  509 fps=3.3 q=46.0 size=    1280KiB time=00:00:04.24 bitrate=2472.1kbits/s speed=0.0277x elapsed=0:02:33.40    \nframe=  510 fps=3.3 q=43.0 size=    1280KiB time=00:00:04.25 bitrate=2467.2kbits/s speed=0.0276x elapsed=0:02:33.93    \nframe=  512 fps=3.3 q=43.0 size=    1280KiB time=00:00:04.26 bitrate=2457.6kbits/s speed=0.0276x elapsed=0:02:34.46    \nframe=  513 fps=3.3 q=33.0 size=    1280KiB time=00:00:04.27 bitrate=2452.8kbits/s speed=0.0276x elapsed=0:02:35.00    \nframe=  515 fps=3.3 q=40.0 size=    1792KiB time=00:00:04.29 bitrate=3420.6kbits/s speed=0.0276x elapsed=0:02:35.53    \nframe=  517 fps=3.3 q=41.0 size=    1792KiB time=00:00:04.30 bitrate=3407.4kbits/s speed=0.0276x elapsed=0:02:36.08    \nframe=  519 fps=3.3 q=43.0 size=    1792KiB time=00:00:04.32 bitrate=3394.2kbits/s speed=0.0276x elapsed=0:02:36.60    \nframe=  522 fps=3.3 q=44.0 size=    1792KiB time=00:00:04.35 bitrate=3374.7kbits/s speed=0.0277x elapsed=0:02:37.12    \nframe=  524 fps=3.3 q=45.0 size=    1792KiB time=00:00:04.36 bitrate=3361.8kbits/s speed=0.0277x elapsed=0:02:37.64    \nframe=  527 fps=3.3 q=44.0 size=    1792KiB time=00:00:04.39 bitrate=3342.7kbits/s speed=0.0278x elapsed=0:02:38.18    \nframe=  529 fps=3.3 q=47.0 size=    1792KiB time=00:00:04.40 bitrate=3330.1kbits/s speed=0.0278x elapsed=0:02:38.72    \nframe=  531 fps=3.3 q=44.0 size=    1792KiB time=00:00:04.42 bitrate=3317.5kbits/s speed=0.0278x elapsed=0:02:39.25    \nframe=  533 fps=3.3 q=45.0 size=    1792KiB time=00:00:04.44 bitrate=3305.1kbits/s speed=0.0278x elapsed=0:02:39.77    \nframe=  535 fps=3.3 q=35.0 size=    1792KiB time=00:00:04.45 bitrate=3292.7kbits/s speed=0.0278x elapsed=0:02:40.30    \nframe=  537 fps=3.3 q=40.0 size=    1792KiB time=00:00:04.47 bitrate=3280.5kbits/s speed=0.0278x elapsed=0:02:40.85    \nframe=  539 fps=3.3 q=42.0 size=    1792KiB time=00:00:04.49 bitrate=3268.3kbits/s speed=0.0278x elapsed=0:02:41.37    \nframe=  541 fps=3.3 q=43.0 size=    1792KiB time=00:00:04.50 bitrate=3256.2kbits/s speed=0.0278x elapsed=0:02:41.90    \nframe=  543 fps=3.3 q=46.0 size=    1792KiB time=00:00:04.52 bitrate=3244.2kbits/s speed=0.0279x elapsed=0:02:42.43    \nframe=  545 fps=3.3 q=44.0 size=    1792KiB time=00:00:04.54 bitrate=3232.3kbits/s speed=0.0279x elapsed=0:02:42.94    \nframe=  547 fps=3.3 q=46.0 size=    1792KiB time=00:00:04.55 bitrate=3220.5kbits/s speed=0.0279x elapsed=0:02:43.46    \nframe=  549 fps=3.3 q=34.0 size=    1792KiB time=00:00:04.57 bitrate=3208.8kbits/s speed=0.0279x elapsed=0:02:43.98    \nframe=  551 fps=3.3 q=41.0 size=    1792KiB time=00:00:04.59 bitrate=3197.1kbits/s speed=0.0279x elapsed=0:02:44.52    \nframe=  554 fps=3.4 q=44.0 size=    1792KiB time=00:00:04.61 bitrate=3179.8kbits/s speed=0.028x elapsed=0:02:45.05    \nframe=  555 fps=3.4 q=44.0 size=    1792KiB time=00:00:04.62 bitrate=3174.1kbits/s speed=0.0279x elapsed=0:02:45.57    \nframe=  558 fps=3.4 q=41.0 size=    1792KiB time=00:00:04.65 bitrate=3157.0kbits/s speed=0.028x elapsed=0:02:46.09    \nframe=  560 fps=3.4 q=43.0 size=    1792KiB time=00:00:04.66 bitrate=3145.7kbits/s speed=0.028x elapsed=0:02:46.62    \nframe=  562 fps=3.4 q=43.0 size=    1792KiB time=00:00:04.68 bitrate=3134.5kbits/s speed=0.028x elapsed=0:02:47.15    \nframe=  564 fps=3.4 q=47.0 size=    1792KiB time=00:00:04.70 bitrate=3123.4kbits/s speed=0.028x elapsed=0:02:47.69    \nframe=  566 fps=3.4 q=44.0 size=    1792KiB time=00:00:04.71 bitrate=3112.4kbits/s speed=0.028x elapsed=0:02:48.23    \nframe=  568 fps=3.4 q=45.0 size=    1792KiB time=00:00:04.73 bitrate=3101.4kbits/s speed=0.028x elapsed=0:02:48.76    \nframe=  570 fps=3.4 q=36.0 size=    1792KiB time=00:00:04.75 bitrate=3090.5kbits/s speed=0.0281x elapsed=0:02:49.30    \nframe=  573 fps=3.4 q=44.0 size=    1792KiB time=00:00:04.77 bitrate=3074.4kbits/s speed=0.0281x elapsed=0:02:49.80    \nframe=  575 fps=3.4 q=45.0 size=    1792KiB time=00:00:04.79 bitrate=3063.7kbits/s speed=0.0281x elapsed=0:02:50.32    \nframe=  576 fps=3.4 q=44.0 size=    1792KiB time=00:00:04.80 bitrate=3058.3kbits/s speed=0.0281x elapsed=0:02:50.85    \nframe=  576 fps=3.4 q=44.0 size=    1792KiB time=00:00:04.80 bitrate=3058.3kbits/s speed=0.028x elapsed=0:02:51.39    \nframe=  576 fps=3.4 q=44.0 size=    1792KiB time=00:00:04.80 bitrate=3058.3kbits/s speed=0.0279x elapsed=0:02:51.92    \nframe=  576 fps=3.3 q=44.0 size=    1792KiB time=00:00:04.80 bitrate=3058.3kbits/s speed=0.0278x elapsed=0:02:52.45    \nframe=  576 fps=3.3 q=44.0 size=    1792KiB time=00:00:04.80 bitrate=3058.3kbits/s speed=0.0277x elapsed=0:02:52.98    \nframe=  576 fps=3.3 q=44.0 size=    1792KiB time=00:00:04.80 bitrate=3058.3kbits/s speed=0.0277x elapsed=0:02:53.51    \nframe=  576 fps=3.3 q=44.0 size=    1792KiB time=00:00:04.80 bitrate=3058.3kbits/s speed=0.0276x elapsed=0:02:54.03    \nframe=  576 fps=3.3 q=44.0 size=    1792KiB time=00:00:04.80 bitrate=3058.3kbits/s speed=0.0275x elapsed=0:02:54.57    \nframe=  576 fps=3.3 q=44.0 size=    1792KiB time=00:00:04.80 bitrate=3058.3kbits/s speed=0.0274x elapsed=0:02:55.09    \nframe=  576 fps=3.3 q=44.0 size=    1792KiB time=00:00:04.80 bitrate=3058.3kbits/s speed=0.0273x elapsed=0:02:55.62    \nframe=  576 fps=3.3 q=44.0 size=    1792KiB time=00:00:04.80 bitrate=3058.3kbits/s speed=0.0272x elapsed=0:02:56.14    \n[out#0/webm @ 000002984d0f8e00] video:2233KiB audio:0KiB subtitle:0KiB other streams:0KiB global headers:0KiB muxing overhead: 0.212080%\nframe=  600 fps=3.4 q=41.0 Lsize=    2238KiB time=00:00:05.00 bitrate=3666.0kbits/s speed=0.0283x elapsed=0:02:56.49    \n",
  "seconds": 177.07931065559387,
  "probe_out": {}
}